<svg id="Layer_1" data-name="Layer 1" xmlns="http://www.w3.org/2000/svg" viewBox="0 0 173.9 48.09"><defs><style>.cls-1{fill:#a41e22;}</style></defs><title>brand</title><polygon class="cls-1" points="49.19 9.37 51.7 4.75 49.19 0.14 44.15 0.14 41.63 4.75 44.15 9.37 49.19 9.37"/><polygon class="cls-1" points="7.78 0 2.59 0 0 4.75 2.59 9.51 7.78 9.51 10.37 4.75 7.78 0"/><path class="cls-1" d="M501.9,491.43v-.32H502l2.59-4.76L502,481.6H496.8L494.42,486l-2.35,1.92h-6.95l-2.57-1.57-2.5-4.58h-5.18l-2.6,4.75,2.6,4.76h.21v.14h5.64l3.47,3,1.22,4.3.11,0v8.95c0,.42,0,.84.05,1.25.6,8.37,7.21,15,15.28,15,8.46,0,15.32-7.26,15.32-16.21C516.17,499,509.87,492,501.9,491.43Zm-16.38,0,0,0h0Zm9.57-3.53,0,0,0,0Zm6,27.68a7.91,7.91,0,1,1,7.47-7.89A7.68,7.68,0,0,1,501,515.57Z" transform="translate(-462.76 -475.73)"/><path class="cls-1" d="M524.67,500.49v18.62h-5.12V500.49Z" transform="translate(-462.76 -475.73)"/><path class="cls-1" d="M534.15,505.22a7.06,7.06,0,0,1,5,12.09,7.26,7.26,0,0,1-10.16,0,7,7,0,0,1,0-10A7.22,7.22,0,0,1,534.15,505.22Zm-.14,5a1.85,1.85,0,0,0-1.39.59,2,2,0,0,0-.58,1.45,2,2,0,0,0,.58,1.45,1.93,1.93,0,0,0,2.8,0,2,2,0,0,0,.58-1.45,2,2,0,0,0-.57-1.45A1.89,1.89,0,0,0,534,510.26Z" transform="translate(-462.76 -475.73)"/><path class="cls-1" d="M549.83,505.22a7.06,7.06,0,0,1,4.95,12.09,7.26,7.26,0,0,1-10.16,0,7,7,0,0,1,0-10A7.21,7.21,0,0,1,549.83,505.22Zm-.14,5a1.85,1.85,0,0,0-1.4.59,2,2,0,0,0-.57,1.45,2,2,0,0,0,.58,1.45,1.92,1.92,0,0,0,2.79,0,2,2,0,0,0,.58-1.45,2,2,0,0,0-.57-1.45A1.86,1.86,0,0,0,549.69,510.26Z" transform="translate(-462.76 -475.73)"/><path class="cls-1" d="M567.43,500.49h5.12v11.33a7.63,7.63,0,0,1-1.64,5.09,6.61,6.61,0,0,1-2.4,1.8,7.35,7.35,0,0,1-8.15-1.37,6.75,6.75,0,0,1-2.1-5,6.83,6.83,0,0,1,2.09-5,6.71,6.71,0,0,1,4.93-2.1c.3,0,.76,0,1.37.08v5.62a2,2,0,0,0-1.26-.49A1.81,1.81,0,0,0,564,511a1.9,1.9,0,0,0-.57,1.39,1.78,1.78,0,0,0,.59,1.36,2,2,0,0,0,1.41.57c1.31,0,2-.91,2-2.72Z" transform="translate(-462.76 -475.73)"/><path d="M590.84,500.44,585,513.71h5.74v5.35H576.66l5.79-13.27h-6.12v-5.35Z" transform="translate(-462.76 -475.73)"/><path d="M598.82,505.17a7.06,7.06,0,0,1,4.95,12.09,7.26,7.26,0,0,1-10.16,0,7,7,0,0,1,0-10A7.21,7.21,0,0,1,598.82,505.17Zm-.14,5a1.87,1.87,0,0,0-1.4.59,2,2,0,0,0-.57,1.45,2,2,0,0,0,.58,1.45,1.87,1.87,0,0,0,1.39.6,1.9,1.9,0,0,0,1.41-.6,2,2,0,0,0,.58-1.45,2,2,0,0,0-.58-1.45A1.86,1.86,0,0,0,598.68,510.21Z" transform="translate(-462.76 -475.73)"/><path d="M620.19,519.06h-5.12v-7.68c0-.78-.33-1.17-1-1.17s-1,.39-1,1.17v7.68H608v-7.59a6.19,6.19,0,0,1,1.77-4.48,6.17,6.17,0,0,1,9,.3,7,7,0,0,1,1.38,4.59Z" transform="translate(-462.76 -475.73)"/><path d="M636.61,513.08h-7.77a3.5,3.5,0,0,1,.07-2.41h2.6a1.6,1.6,0,0,0-1.71-1.51,1.86,1.86,0,0,0-1.56.81,3.34,3.34,0,0,0-.61,2.08,3.61,3.61,0,0,0,.59,2.14,1.76,1.76,0,0,0,1.52.82,2,2,0,0,0,1.48-.77l2.92,3.5a7.19,7.19,0,0,1-4.53,1.59,7,7,0,0,1-5.11-2,7.15,7.15,0,0,1,0-10.08,7,7,0,0,1,5.13-2.06,6.8,6.8,0,0,1,5,2,6.72,6.72,0,0,1,2,5C636.66,512.33,636.64,512.65,636.61,513.08Z" transform="translate(-462.76 -475.73)"/></svg>